<svg id="Ebene_1" data-name="Ebene 1" xmlns="http://www.w3.org/2000/svg" width="142" height="72" viewBox="0 0 142 72"><defs><style>.cls-1{fill:#006c99;}</style></defs><path class="cls-1" d="M44.47,70.14a2.38,2.38,0,0,0,1.1.84,4,4,0,0,0,1.46.27,3.23,3.23,0,0,0,1.09-.17A2.58,2.58,0,0,0,49,70.6a2.43,2.43,0,0,0,.6-.78,2.53,2.53,0,0,0,.22-1,1.87,1.87,0,0,0-.3-1.13,2.1,2.1,0,0,0-.73-.66,4.19,4.19,0,0,0-.95-.38,7.56,7.56,0,0,1-1-.31,2.19,2.19,0,0,1-.73-.44,1,1,0,0,1-.3-.78,1.29,1.29,0,0,1,.08-.4,1.16,1.16,0,0,1,.25-.4,1.41,1.41,0,0,1,.48-.3,2.05,2.05,0,0,1,.76-.12,1.83,1.83,0,0,1,.85.19,1.42,1.42,0,0,1,.57.51l.89-.8A2.17,2.17,0,0,0,48.68,63a4.29,4.29,0,0,0-1.25-.18,3.06,3.06,0,0,0-1.24.22,2.66,2.66,0,0,0-.85.55,2.07,2.07,0,0,0-.48.72,2.17,2.17,0,0,0-.15.75A2.35,2.35,0,0,0,45,66.31a2.31,2.31,0,0,0,.73.73,4.19,4.19,0,0,0,1,.43c.34.1.66.2,1,.31a2.68,2.68,0,0,1,.73.41.88.88,0,0,1,.29.71,1.11,1.11,0,0,1-.15.58,1.24,1.24,0,0,1-.38.41,1.54,1.54,0,0,1-.51.26,1.81,1.81,0,0,1-.56.08,2.22,2.22,0,0,1-.94-.21,1.62,1.62,0,0,1-.75-.65l-.9.77Zm7.65-2.53a1.74,1.74,0,0,1,.35-.59,1.55,1.55,0,0,1,.55-.38,1.78,1.78,0,0,1,.74-.14,1.73,1.73,0,0,1,.73.14,1.59,1.59,0,0,1,.56.38,1.74,1.74,0,0,1,.35.59,2.44,2.44,0,0,1,0,1.51,1.65,1.65,0,0,1-.35.59,1.59,1.59,0,0,1-.56.38,1.73,1.73,0,0,1-.73.14,1.78,1.78,0,0,1-.74-.14,1.55,1.55,0,0,1-.55-.38,1.65,1.65,0,0,1-.35-.59,2.26,2.26,0,0,1,0-1.51m-1,1.86a2.77,2.77,0,0,0,.61.89,2.67,2.67,0,0,0,.91.6,2.77,2.77,0,0,0,1.12.23A2.8,2.8,0,0,0,54.88,71a2.54,2.54,0,0,0,.9-.6,2.77,2.77,0,0,0,.61-.89,2.7,2.7,0,0,0,.22-1.1,2.67,2.67,0,0,0-.22-1.1,2.92,2.92,0,0,0-.61-.9,2.68,2.68,0,0,0-.9-.6,2.8,2.8,0,0,0-1.12-.22,2.76,2.76,0,0,0-1.12.22,2.83,2.83,0,0,0-.91.6,2.92,2.92,0,0,0-.61.9,2.84,2.84,0,0,0-.22,1.1,2.88,2.88,0,0,0,.22,1.1m6.4,1.58H62v-.88H58.74l3.07-3.58v-.91H57.62v.89h2.94l-3,3.56v.92Zm5.69,0h1V65.68h-1v5.37Zm0-6.77a.69.69,0,0,0,.52.22.71.71,0,0,0,.53-.22.69.69,0,0,0,.22-.52.75.75,0,0,0-.75-.75.69.69,0,0,0-.52.22.71.71,0,0,0-.22.53.69.69,0,0,0,.22.52M66.49,67l.28-.21a1.81,1.81,0,0,1,.33-.2,2.08,2.08,0,0,1,.4-.14,2,2,0,0,1,.51-.06,1.42,1.42,0,0,1,.57.1,1.11,1.11,0,0,1,.4.26,1.31,1.31,0,0,1,.24.37,1.12,1.12,0,0,1,.07.4v.23h-.74a6,6,0,0,0-1.15.1,3.15,3.15,0,0,0-.94.31,1.79,1.79,0,0,0-.64.58,1.56,1.56,0,0,0-.23.87,1.51,1.51,0,0,0,.55,1.2,1.69,1.69,0,0,0,.6.3,2.35,2.35,0,0,0,.71.11A2.52,2.52,0,0,0,68.52,71a2,2,0,0,0,.81-.74h0a7.38,7.38,0,0,0,0,.82h.9q0-.21,0-.45c0-.16,0-.34,0-.52V67.34a2,2,0,0,0-.13-.68,1.72,1.72,0,0,0-.41-.57,1.93,1.93,0,0,0-.69-.4,3.11,3.11,0,0,0-1-.14,3.48,3.48,0,0,0-1.13.19,2.9,2.9,0,0,0-1,.6l.62.63Zm2.8,1.5v.34a2.13,2.13,0,0,1-.07.55,1.59,1.59,0,0,1-.26.5,1.5,1.5,0,0,1-.48.37,1.73,1.73,0,0,1-.71.14,1.59,1.59,0,0,1-.85-.2.74.74,0,0,1-.31-.67.72.72,0,0,1,.2-.52,1.31,1.31,0,0,1,.51-.32,2.91,2.91,0,0,1,.69-.15,6.23,6.23,0,0,1,.74,0Zm2.52,2.58h1V62.49h-1v8.56Zm7.39-5.37h-1v2.77a2.46,2.46,0,0,1-.11.8,1.4,1.4,0,0,1-.32.56,1.16,1.16,0,0,1-.47.32,1.63,1.63,0,0,1-.59.1,1.43,1.43,0,0,1-.46-.07,1,1,0,0,1-.39-.24,1.22,1.22,0,0,1-.27-.43,1.72,1.72,0,0,1-.1-.64V65.68h-1v3.46a2.36,2.36,0,0,0,.16.92,1.7,1.7,0,0,0,.42.64,1.77,1.77,0,0,0,.62.37,2.27,2.27,0,0,0,.75.12,2.15,2.15,0,0,0,1.09-.27,1.5,1.5,0,0,0,.67-.7h0v.83h1V65.68Zm1.54,5.37h1V68.29a2.47,2.47,0,0,1,.12-.81,1.59,1.59,0,0,1,.31-.56,1.27,1.27,0,0,1,.48-.32,1.63,1.63,0,0,1,.59-.1,1.43,1.43,0,0,1,.46.07,1.15,1.15,0,0,1,.39.24,1.22,1.22,0,0,1,.27.43,1.76,1.76,0,0,1,.1.64v3.17h1V67.6a2.38,2.38,0,0,0-.16-.93,1.83,1.83,0,0,0-.42-.64,1.65,1.65,0,0,0-.63-.36,2.25,2.25,0,0,0-.74-.12,2.21,2.21,0,0,0-1.1.26,1.48,1.48,0,0,0-.66.7h0v-.83h-1v5.37Zm9.18-5.37H88.46v-1.5h-1v1.5H86.26v.89h1.18v2.79c0,.22,0,.44,0,.65a1.2,1.2,0,0,0,.18.59,1.14,1.14,0,0,0,.47.42,2,2,0,0,0,.91.17l.45,0A1.37,1.37,0,0,0,90,71v-.92a1,1,0,0,1-.35.12l-.37,0a.79.79,0,0,1-.45-.1.66.66,0,0,1-.23-.29,1.18,1.18,0,0,1-.08-.39c0-.15,0-.3,0-.45V66.57h1.46v-.89Zm6.38,3.06v-.36a3.6,3.6,0,0,0-.14-1,2.48,2.48,0,0,0-.46-.9,2.26,2.26,0,0,0-.81-.65,2.57,2.57,0,0,0-1.2-.25,2.89,2.89,0,0,0-1.11.21,2.55,2.55,0,0,0-.88.6,2.69,2.69,0,0,0-.58.89,2.94,2.94,0,0,0-.21,1.12,3.08,3.08,0,0,0,.2,1.11,2.64,2.64,0,0,0,.54.9,2.48,2.48,0,0,0,.88.59,3,3,0,0,0,1.15.22,2.82,2.82,0,0,0,2.37-1.1l-.77-.59a2.67,2.67,0,0,1-.64.58,1.51,1.51,0,0,1-.83.22,2.25,2.25,0,0,1-.68-.11,1.76,1.76,0,0,1-.57-.32,1.63,1.63,0,0,1-.41-.49,1.37,1.37,0,0,1-.15-.64ZM92,67.92a1.4,1.4,0,0,1,.12-.55,1.81,1.81,0,0,1,.33-.5A1.86,1.86,0,0,1,93,66.5a1.72,1.72,0,0,1,.68-.14,1.76,1.76,0,0,1,.68.12,1.37,1.37,0,0,1,.48.33,1.42,1.42,0,0,1,.29.49,2.44,2.44,0,0,1,.11.62Zm5.53,3.13h1v-2.7a1.87,1.87,0,0,1,.39-1.3,1.52,1.52,0,0,1,1.15-.42l.25,0,.24,0,0-1.1a1.63,1.63,0,0,0-.45-.06,1.68,1.68,0,0,0-.5.07,1.73,1.73,0,0,0-.46.2,1.57,1.57,0,0,0-.38.3,1.51,1.51,0,0,0-.27.39h0v-.83h-1v5.37Zm4.19,0h1V68.29a2.48,2.48,0,0,1,.11-.81,1.47,1.47,0,0,1,.32-.56,1.16,1.16,0,0,1,.47-.32,1.63,1.63,0,0,1,.59-.1,1.43,1.43,0,0,1,.46.07,1,1,0,0,1,.39.24,1.22,1.22,0,0,1,.27.43,1.76,1.76,0,0,1,.1.64v3.17h1V67.6a2.38,2.38,0,0,0-.16-.93,1.61,1.61,0,0,0-1-1,2.34,2.34,0,0,0-.74-.12,2.16,2.16,0,0,0-1.1.26,1.5,1.5,0,0,0-.67.7h0v-.83h-1v5.37Zm11.37-2.31v-.36a4,4,0,0,0-.14-1,2.65,2.65,0,0,0-.46-.9,2.35,2.35,0,0,0-.81-.65,2.61,2.61,0,0,0-1.21-.25,2.89,2.89,0,0,0-1.11.21,2.55,2.55,0,0,0-.88.6,2.83,2.83,0,0,0-.57.89,2.94,2.94,0,0,0-.21,1.12,3.08,3.08,0,0,0,.19,1.11,2.66,2.66,0,0,0,.55.9,2.53,2.53,0,0,0,.87.59,3,3,0,0,0,1.15.22,2.85,2.85,0,0,0,2.38-1.1l-.77-.59a2.71,2.71,0,0,1-.65.58,1.48,1.48,0,0,1-.82.22,2.15,2.15,0,0,1-.68-.11,1.81,1.81,0,0,1-.58-.32,1.46,1.46,0,0,1-.4-.49,1.27,1.27,0,0,1-.16-.64Zm-4.31-.82a1.4,1.4,0,0,1,.12-.55,1.64,1.64,0,0,1,.34-.5,1.81,1.81,0,0,1,.52-.37,1.85,1.85,0,0,1,1.36,0,1.34,1.34,0,0,1,.77.82,2.07,2.07,0,0,1,.11.62Zm5.53,3.13h1V68.29a2.78,2.78,0,0,1,.11-.81,1.61,1.61,0,0,1,.32-.56,1.19,1.19,0,0,1,.48-.32,1.57,1.57,0,0,1,.58-.1,1.39,1.39,0,0,1,.46.07,1,1,0,0,1,.39.24,1.11,1.11,0,0,1,.28.43,2,2,0,0,1,.1.64v3.17h1V67.6a2.58,2.58,0,0,0-.16-.93,1.85,1.85,0,0,0-.43-.64,1.54,1.54,0,0,0-.62-.36,2.34,2.34,0,0,0-.74-.12,2.18,2.18,0,0,0-1.1.26,1.5,1.5,0,0,0-.67.7h0v-4h-1v8.56Zm6.3,0h1V68.26a2.3,2.3,0,0,1,.11-.78,1.51,1.51,0,0,1,.3-.55,1.17,1.17,0,0,1,.45-.32,1.23,1.23,0,0,1,.53-.11,1.1,1.1,0,0,1,.59.13A.84.84,0,0,1,124,67a1.54,1.54,0,0,1,.16.55,5,5,0,0,1,0,.7v2.81h1V68.12a2,2,0,0,1,.32-1.17,1.19,1.19,0,0,1,1.05-.45,1.16,1.16,0,0,1,.6.13.88.88,0,0,1,.35.34,1.55,1.55,0,0,1,.17.5,5.65,5.65,0,0,1,0,.59v3h1V67.92a4.14,4.14,0,0,0-.09-.87,2.06,2.06,0,0,0-.31-.76,1.72,1.72,0,0,0-.62-.54,2.21,2.21,0,0,0-1-.2,2,2,0,0,0-1,.25,1.68,1.68,0,0,0-.73.74,1.75,1.75,0,0,0-1.68-1,2,2,0,0,0-.66.1,2.8,2.8,0,0,0-.52.26,1.66,1.66,0,0,0-.36.33.72.72,0,0,0-.18.28h0v-.84h-1v5.37Zm14.72-2.31v-.36a4,4,0,0,0-.14-1,2.65,2.65,0,0,0-.46-.9,2.26,2.26,0,0,0-.81-.65,2.61,2.61,0,0,0-1.21-.25,2.89,2.89,0,0,0-1.11.21,2.42,2.42,0,0,0-.87.6,2.69,2.69,0,0,0-.58.89,2.94,2.94,0,0,0-.21,1.12,3.08,3.08,0,0,0,.19,1.11,2.66,2.66,0,0,0,.55.9,2.53,2.53,0,0,0,.87.59,3,3,0,0,0,1.15.22,2.85,2.85,0,0,0,2.38-1.1l-.77-.59a2.71,2.71,0,0,1-.65.58,1.48,1.48,0,0,1-.82.22,2.2,2.2,0,0,1-.68-.11,1.92,1.92,0,0,1-.58-.32,1.46,1.46,0,0,1-.4-.49,1.37,1.37,0,0,1-.15-.64Zm-4.3-.82a1.38,1.38,0,0,1,.11-.55,1.64,1.64,0,0,1,.34-.5,1.73,1.73,0,0,1,.53-.37,1.65,1.65,0,0,1,.68-.14,1.71,1.71,0,0,1,.67.12,1.32,1.32,0,0,1,.49.33,1.39,1.39,0,0,1,.28.49,2.07,2.07,0,0,1,.11.62Zm5.52,3.13h1V68.29a2.78,2.78,0,0,1,.11-.81,1.79,1.79,0,0,1,.32-.56,1.27,1.27,0,0,1,.48-.32,1.59,1.59,0,0,1,.59-.1,1.37,1.37,0,0,1,.45.07,1,1,0,0,1,.39.24,1.11,1.11,0,0,1,.28.43,2,2,0,0,1,.1.64v3.17h1V67.6a2.38,2.38,0,0,0-.16-.93,1.85,1.85,0,0,0-.43-.64,1.54,1.54,0,0,0-.62-.36,2.3,2.3,0,0,0-.74-.12,2.18,2.18,0,0,0-1.1.26,1.5,1.5,0,0,0-.67.7h0v-.83h-1v5.37Z"/><path class="cls-1" d="M45,57.81h2.61a4.88,4.88,0,0,0,1.9-.34,4.23,4.23,0,0,0,1.38-.9,3.72,3.72,0,0,0,.83-1.28A4,4,0,0,0,52,53.8a4.82,4.82,0,0,0-.08-.81,5,5,0,0,0-.26-.89,4,4,0,0,0-.5-.86,2.91,2.91,0,0,0-.78-.74A3.8,3.8,0,0,0,49.23,50a5.45,5.45,0,0,0-1.49-.19H45v8Zm1.08-7h1.64a3.47,3.47,0,0,1,1.58.32,2.7,2.7,0,0,1,1.43,1.77,4,4,0,0,1,.12.9,3,3,0,0,1-.27,1.31,2.7,2.7,0,0,1-.74.93,3.09,3.09,0,0,1-1.08.56,4.32,4.32,0,0,1-1.31.19H46v-6Zm7.86,2.92.29-.21a1.45,1.45,0,0,1,.32-.2,2.47,2.47,0,0,1,.41-.14,1.93,1.93,0,0,1,.51-.06,1.42,1.42,0,0,1,.57.1,1.12,1.12,0,0,1,.63.63,1,1,0,0,1,.08.4v.23H56a5.9,5.9,0,0,0-1.14.1,3.21,3.21,0,0,0-1,.31,1.85,1.85,0,0,0-.63.58,1.56,1.56,0,0,0-.23.87,1.52,1.52,0,0,0,.15.69,1.42,1.42,0,0,0,.4.51,1.73,1.73,0,0,0,.59.3,2.46,2.46,0,0,0,.72.11,2.59,2.59,0,0,0,1.07-.22,2,2,0,0,0,.81-.74h0c0,.28,0,.55,0,.82h.91c0-.14,0-.29,0-.45s0-.33,0-.52V54.1a1.75,1.75,0,0,0-.13-.68,1.56,1.56,0,0,0-.4-.57,1.89,1.89,0,0,0-.7-.4,3.33,3.33,0,0,0-1-.14,3.44,3.44,0,0,0-1.13.19,3.07,3.07,0,0,0-1,.6l.61.63Zm2.81,1.5v.34a1.79,1.79,0,0,1-.08.55,1.41,1.41,0,0,1-.26.5,1.46,1.46,0,0,1-.47.37,1.74,1.74,0,0,1-.72.14,1.58,1.58,0,0,1-.84-.2.74.74,0,0,1-.31-.67.68.68,0,0,1,.2-.52,1.31,1.31,0,0,1,.51-.32,2.34,2.34,0,0,1,.69-.15,6.23,6.23,0,0,1,.74,0Zm6.08-2a1.63,1.63,0,0,0-.79-.68,2.8,2.8,0,0,0-1.78-.1,2.22,2.22,0,0,0-.66.3,1.53,1.53,0,0,0-.46.52,1.44,1.44,0,0,0-.18.73,1.35,1.35,0,0,0,.14.64,1.29,1.29,0,0,0,.36.44,2,2,0,0,0,.52.27c.2.06.4.13.62.18l.39.08a2.59,2.59,0,0,1,.42.14,1,1,0,0,1,.34.23.5.5,0,0,1,.14.38.53.53,0,0,1-.09.3,1,1,0,0,1-.25.21,1.21,1.21,0,0,1-.35.13l-.39,0A1.35,1.35,0,0,1,60,56.8a3,3,0,0,1-.56-.44l-.77.63a2.09,2.09,0,0,0,.9.75,3.07,3.07,0,0,0,1.18.21,3.46,3.46,0,0,0,.78-.09,2,2,0,0,0,.7-.3,1.59,1.59,0,0,0,.5-.53,1.44,1.44,0,0,0,.19-.77,1.56,1.56,0,0,0-.12-.64,1.31,1.31,0,0,0-.33-.44,1.53,1.53,0,0,0-.5-.29,3.63,3.63,0,0,0-.61-.19L61,54.62a2.15,2.15,0,0,1-.45-.14,1.13,1.13,0,0,1-.36-.24.5.5,0,0,1-.15-.38.49.49,0,0,1,.26-.45,1.44,1.44,0,0,1,1.28,0,1.52,1.52,0,0,1,.45.38l.79-.6Zm4.79,4.62h2.76a3.83,3.83,0,0,0,1.09-.15,2.68,2.68,0,0,0,.9-.43,2,2,0,0,0,.6-.69,2,2,0,0,0,.23-1,2.1,2.1,0,0,0-.14-.76,2,2,0,0,0-.37-.62,1.94,1.94,0,0,0-.55-.43,1.6,1.6,0,0,0-.68-.18v0a2.22,2.22,0,0,0,1-.64,1.6,1.6,0,0,0,.38-1.12,2,2,0,0,0-.18-.89,1.87,1.87,0,0,0-.51-.63,2.28,2.28,0,0,0-.77-.36,3.35,3.35,0,0,0-1-.13H67.57v8Zm1.09-7.07h1.71a1.14,1.14,0,0,1,1.27,1.18,1.19,1.19,0,0,1-.12.56,1.14,1.14,0,0,1-.32.37,1.3,1.3,0,0,1-.48.21,2.65,2.65,0,0,1-.58.06H68.66V50.74Zm0,3.33h1.61a2,2,0,0,1,1.26.36A1.29,1.29,0,0,1,72,55.5a1.18,1.18,0,0,1-.18.69,1.43,1.43,0,0,1-.44.41,1.66,1.66,0,0,1-.56.21,3.86,3.86,0,0,1-.55,0h-1.6V54.07Zm5.87,3.74h1V52.44h-1v5.37Zm0-6.77a.71.71,0,0,0,.53.22.75.75,0,0,0,.74-.74.71.71,0,0,0-.22-.53.69.69,0,0,0-.52-.22.75.75,0,0,0-.75.75.69.69,0,0,0,.22.52m2.73,6.77h1V49.25h-1v8.56Zm8-8.56h-1v4h0a1.82,1.82,0,0,0-.78-.66,2.52,2.52,0,0,0-1.09-.24,3,3,0,0,0-1.13.21,2.47,2.47,0,0,0-.86.6,2.59,2.59,0,0,0-.54.89,3.14,3.14,0,0,0-.2,1.12,3.08,3.08,0,0,0,.2,1.11,2.69,2.69,0,0,0,.54.89,2.47,2.47,0,0,0,.86.6,3,3,0,0,0,1.13.22,2.48,2.48,0,0,0,1.06-.24,2,2,0,0,0,.81-.67h0v.77h1V49.25Zm-3.52,7.6a1.55,1.55,0,0,1-.55-.38,1.67,1.67,0,0,1-.36-.59,2.44,2.44,0,0,1,0-1.51,1.77,1.77,0,0,1,.36-.59,1.55,1.55,0,0,1,.55-.38,2,2,0,0,1,1.47,0,1.59,1.59,0,0,1,.56.38,1.92,1.92,0,0,1,.35.59,2.44,2.44,0,0,1,0,1.51,1.81,1.81,0,0,1-.35.59,1.59,1.59,0,0,1-.56.38,2,2,0,0,1-1.47,0m9.82-4.41h-1v2.77a2.76,2.76,0,0,1-.11.8,1.68,1.68,0,0,1-.32.56,1.16,1.16,0,0,1-.48.32A1.59,1.59,0,0,1,89,57a1.37,1.37,0,0,1-.45-.07,1.1,1.1,0,0,1-.4-.24,1.22,1.22,0,0,1-.27-.43,2,2,0,0,1-.1-.64V52.44h-1V55.9a2.36,2.36,0,0,0,.16.92,1.85,1.85,0,0,0,.43.64,1.59,1.59,0,0,0,.61.37,2.36,2.36,0,0,0,.75.12,2.19,2.19,0,0,0,1.1-.27,1.5,1.5,0,0,0,.67-.7h0v.83h1V52.44Zm1.54,5.37h1V55.05a2.78,2.78,0,0,1,.11-.81,1.61,1.61,0,0,1,.32-.56,1.27,1.27,0,0,1,.47-.32,1.63,1.63,0,0,1,.59-.1,1.43,1.43,0,0,1,.46.07,1.06,1.06,0,0,1,.66.67,1.75,1.75,0,0,1,.11.64v3.17h1V54.36a2.59,2.59,0,0,0-.15-.93,1.85,1.85,0,0,0-.43-.64,1.61,1.61,0,0,0-.62-.36,2.34,2.34,0,0,0-.74-.12,2.29,2.29,0,0,0-1.1.26,1.5,1.5,0,0,0-.67.7h0v-.83h-1v5.37Zm11.67-5.37h-1v.77h0a1.93,1.93,0,0,0-.81-.67,2.59,2.59,0,0,0-1.06-.23,2.87,2.87,0,0,0-1.12.21,2.3,2.3,0,0,0-.86.6,2.76,2.76,0,0,0-.55.9,3.12,3.12,0,0,0-.2,1.11,2.82,2.82,0,0,0,.21,1.09,2.35,2.35,0,0,0,.57.87,2.47,2.47,0,0,0,.86.58,2.82,2.82,0,0,0,1.09.21,2.56,2.56,0,0,0,1.06-.23,1.86,1.86,0,0,0,.8-.72h0v.79a2.53,2.53,0,0,1-.1.67,1.5,1.5,0,0,1-.31.6,1.57,1.57,0,0,1-.59.42,2.32,2.32,0,0,1-.94.17,2.49,2.49,0,0,1-1-.22,2.92,2.92,0,0,1-.86-.65l-.7.86a3.42,3.42,0,0,0,1.22.74,4.25,4.25,0,0,0,1.41.22,3.29,3.29,0,0,0,1.2-.21,2.59,2.59,0,0,0,.93-.57,2.4,2.4,0,0,0,.59-.87,2.9,2.9,0,0,0,.21-1.12V52.44Zm-2,1a1.59,1.59,0,0,1,.56.38,1.74,1.74,0,0,1,.35.59,2.28,2.28,0,0,1,.13.76,1.77,1.77,0,0,1-.48,1.3,1.91,1.91,0,0,1-2.58,0,1.77,1.77,0,0,1-.48-1.3,2.06,2.06,0,0,1,.13-.76,1.74,1.74,0,0,1,.35-.59,1.55,1.55,0,0,1,.55-.38,1.78,1.78,0,0,1,.74-.14,1.7,1.7,0,0,1,.73.14m7.24-.21a1.68,1.68,0,0,0-.79-.68,2.64,2.64,0,0,0-1-.2,2.76,2.76,0,0,0-.75.1,2.28,2.28,0,0,0-.65.3,1.67,1.67,0,0,0-.47.52,1.54,1.54,0,0,0-.17.73,1.35,1.35,0,0,0,.13.64,1.21,1.21,0,0,0,.37.44,2,2,0,0,0,.52.27c.19.06.4.13.62.18l.39.08a2.59,2.59,0,0,1,.42.14,1,1,0,0,1,.34.23.54.54,0,0,1,.14.38.47.47,0,0,1-.1.3.83.83,0,0,1-.24.21,1.28,1.28,0,0,1-.36.13l-.39,0a1.34,1.34,0,0,1-.74-.19,3,3,0,0,1-.56-.44l-.77.63a2.09,2.09,0,0,0,.9.75,3.05,3.05,0,0,0,1.17.21,3.48,3.48,0,0,0,.79-.09,2.09,2.09,0,0,0,.7-.3,1.59,1.59,0,0,0,.5-.53,1.7,1.7,0,0,0,.07-1.41,1.31,1.31,0,0,0-.33-.44,1.53,1.53,0,0,0-.5-.29,3.94,3.94,0,0,0-.61-.19l-.41-.08a2.15,2.15,0,0,1-.45-.14,1.13,1.13,0,0,1-.36-.24.51.51,0,0,1-.16-.38.48.48,0,0,1,.27-.45,1.28,1.28,0,0,1,.63-.15,1.3,1.3,0,0,1,.65.15,1.52,1.52,0,0,1,.45.38l.79-.6Zm3.79,1.4H111v1h2.78v-1Zm9.08-2.15h-1v2.77a2.45,2.45,0,0,1-.12.8,1.51,1.51,0,0,1-.31.56,1.16,1.16,0,0,1-.48.32,1.63,1.63,0,0,1-.59.1,1.43,1.43,0,0,1-.46-.07,1.15,1.15,0,0,1-.39-.24,1.22,1.22,0,0,1-.27-.43,1.72,1.72,0,0,1-.1-.64V52.44h-1V55.9a2.36,2.36,0,0,0,.16.92,1.83,1.83,0,0,0,.42.64,1.71,1.71,0,0,0,.62.37A2.27,2.27,0,0,0,120,58a2.21,2.21,0,0,0,1.1-.27,1.48,1.48,0,0,0,.66-.7h0v.83h1V52.44Zm1.54,5.37h1V55.05a2.47,2.47,0,0,1,.12-.81,1.47,1.47,0,0,1,.32-.56,1.27,1.27,0,0,1,.47-.32,1.63,1.63,0,0,1,.59-.1,1.43,1.43,0,0,1,.46.07,1,1,0,0,1,.39.24A1.22,1.22,0,0,1,128,54a1.76,1.76,0,0,1,.1.64v3.17h1V54.36a2.38,2.38,0,0,0-.16-.93,1.61,1.61,0,0,0-1-1,2.36,2.36,0,0,0-.75-.12,2.25,2.25,0,0,0-1.09.26,1.5,1.5,0,0,0-.67.7h0v-.83h-1v5.37ZM136,49.25h-1v4h0a1.82,1.82,0,0,0-.78-.66,2.52,2.52,0,0,0-1.09-.24,3,3,0,0,0-1.13.21,2.47,2.47,0,0,0-.86.6,2.78,2.78,0,0,0-.55.89,3.37,3.37,0,0,0-.19,1.12,3.31,3.31,0,0,0,.19,1.11,2.89,2.89,0,0,0,.55.89,2.47,2.47,0,0,0,.86.6,3,3,0,0,0,1.13.22,2.48,2.48,0,0,0,1.06-.24A2,2,0,0,0,135,57h0v.77h1V49.25Zm-3.52,7.6a1.68,1.68,0,0,1-.56-.38,1.81,1.81,0,0,1-.35-.59,2.44,2.44,0,0,1,0-1.51,1.92,1.92,0,0,1,.35-.59,1.68,1.68,0,0,1,.56-.38,2,2,0,0,1,1.47,0,1.59,1.59,0,0,1,.56.38,1.92,1.92,0,0,1,.35.59,2.44,2.44,0,0,1,0,1.51,1.81,1.81,0,0,1-.35.59,1.59,1.59,0,0,1-.56.38,2,2,0,0,1-1.47,0"/><path class="cls-1" d="M24,20.06a12.26,12.26,0,0,0-4.63-3.17,15.31,15.31,0,0,0-5.58-1,14.57,14.57,0,0,0-5.59,1.05A12.84,12.84,0,0,0,1,24.26a15.11,15.11,0,0,0-1,5.57,15.17,15.17,0,0,0,1,5.61,13.38,13.38,0,0,0,2.78,4.43,12.11,12.11,0,0,0,4.34,2.89,15,15,0,0,0,5.62,1,15,15,0,0,0,5.5-1,11.61,11.61,0,0,0,4.54-3.23l-3.29-3.12a7.85,7.85,0,0,1-6.75,3.29,8.61,8.61,0,0,1-3.69-.77A8.1,8.1,0,0,1,7.27,36.8a10.07,10.07,0,0,1-1.82-3.14,11.24,11.24,0,0,1-.65-3.83A12.6,12.6,0,0,1,5.37,26,9.37,9.37,0,0,1,7,22.85a7.58,7.58,0,0,1,2.81-2.13A9.45,9.45,0,0,1,13.77,20a8.53,8.53,0,0,1,3.63.77,8.91,8.91,0,0,1,3.06,2.47L24,20.06Z"/><path class="cls-1" d="M62.34,43.1h4.43V.2H62.34V20.41h-.11A13,13,0,0,0,58,17.06a11.76,11.76,0,0,0-5.31-1.19,15.18,15.18,0,0,0-5.7,1,12.86,12.86,0,0,0-4.4,2.93,13.64,13.64,0,0,0-2.84,4.42,15.69,15.69,0,0,0,0,11.13,13.91,13.91,0,0,0,2.81,4.42,12.62,12.62,0,0,0,4.23,2.92A13.09,13.09,0,0,0,52,43.78a12.26,12.26,0,0,0,6.27-1.56,10.13,10.13,0,0,0,3.95-3.83h.11V43.1Zm-.65-9.39a9,9,0,0,1-4.88,5.22,10.21,10.21,0,0,1-7.78,0,9,9,0,0,1-4.88-5.22,11.94,11.94,0,0,1,0-7.77A9,9,0,0,1,49,20.72a10.21,10.21,0,0,1,7.78,0,9,9,0,0,1,4.88,5.22,11.94,11.94,0,0,1,0,7.77"/><path class="cls-1" d="M29.2,8.49a3.43,3.43,0,0,0,4.65,0,3.14,3.14,0,0,0,.91-2.33,3.18,3.18,0,0,0-.93-2.27,3.24,3.24,0,0,0-4.6,0,3.14,3.14,0,0,0-.94,2.27,3.14,3.14,0,0,0,.91,2.33"/><path class="cls-1" d="M33.74,16.55H29.31V47a15.08,15.08,0,0,1-.14,2.16A5.24,5.24,0,0,1,28.63,51a3,3,0,0,1-1.16,1.22,3.84,3.84,0,0,1-2,.46,7.37,7.37,0,0,1-2.16-.34l-.51,3.85a5.52,5.52,0,0,0,1.5.46,11.46,11.46,0,0,0,1.56.11,8.52,8.52,0,0,0,4-.82,6.64,6.64,0,0,0,3.58-4.48,10.42,10.42,0,0,0,.31-2.36V16.55Z"/><path class="cls-1" d="M30.64,71.84A27.22,27.22,0,0,1,4.69,52.77l3.76-1.19A23.3,23.3,0,0,0,37.12,67l1.08,3.79a27.54,27.54,0,0,1-7.56,1.06"/></svg>